<svg width="450" height="125" viewBox="0 0 450 125" fill="none" xmlns="http://www.w3.org/2000/svg">
<mask id="mask0_18180_336" style="mask-type:luminance" maskUnits="userSpaceOnUse" x="0" y="6" width="112" height="113">
<path d="M0.265625 6.70825H112V118.667H0.265625V6.70825Z" fill="white"/>
</mask>
<g mask="url(#mask0_18180_336)">
<mask id="mask1_18180_336" style="mask-type:luminance" maskUnits="userSpaceOnUse" x="0" y="6" width="112" height="112">
<path d="M30.1927 6.70825H81.5781C82.5573 6.70825 83.5365 6.75513 84.5104 6.85409C85.4896 6.94784 86.4583 7.09367 87.4167 7.28638C88.3802 7.47388 89.3281 7.71346 90.2656 7.99992C91.2031 8.28117 92.125 8.6145 93.0313 8.9895C93.9375 9.3645 94.8229 9.78117 95.6875 10.2447C96.5521 10.703 97.3906 11.2083 98.2031 11.7551C99.0208 12.2968 99.8073 12.8801 100.563 13.4999C101.323 14.1249 102.047 14.7812 102.74 15.4739C103.432 16.1666 104.089 16.8905 104.714 17.651C105.333 18.4062 105.917 19.1926 106.464 20.0103C107.005 20.8228 107.51 21.6666 107.969 22.5312C108.432 23.3905 108.854 24.276 109.229 25.1822C109.604 26.0885 109.932 27.0103 110.219 27.9478C110.5 28.8853 110.74 29.8385 110.932 30.7968C111.12 31.7603 111.266 32.7291 111.359 33.703C111.458 34.677 111.505 35.6562 111.505 36.6353V88.0207C111.505 88.9999 111.458 89.9791 111.359 90.953C111.266 91.9322 111.12 92.901 110.932 93.8593C110.74 94.8228 110.5 95.7707 110.219 96.7082C109.932 97.6457 109.604 98.5676 109.229 99.4739C108.854 100.38 108.432 101.266 107.969 102.13C107.51 102.995 107.005 103.833 106.464 104.651C105.917 105.463 105.333 106.25 104.714 107.005C104.089 107.766 103.432 108.489 102.74 109.182C102.047 109.875 101.323 110.531 100.563 111.156C99.8073 111.776 99.0208 112.359 98.2031 112.906C97.3906 113.448 96.5521 113.953 95.6875 114.417C94.8229 114.875 93.9375 115.297 93.0313 115.672C92.125 116.047 91.2031 116.375 90.2656 116.661C89.3281 116.943 88.3802 117.182 87.4167 117.375C86.4583 117.562 85.4896 117.708 84.5104 117.802C83.5365 117.901 82.5573 117.948 81.5781 117.948H30.1927C29.2135 117.948 28.2344 117.901 27.2604 117.802C26.2813 117.708 25.3125 117.562 24.3542 117.375C23.3906 117.182 22.4427 116.943 21.5052 116.661C20.5677 116.375 19.6458 116.047 18.7396 115.672C17.8333 115.297 16.9479 114.875 16.0833 114.417C15.2187 113.953 14.3802 113.448 13.5677 112.906C12.75 112.359 11.9635 111.776 11.2083 111.156C10.4479 110.531 9.72396 109.875 9.03125 109.182C8.33854 108.489 7.68229 107.766 7.05729 107.005C6.4375 106.25 5.85417 105.463 5.30729 104.651C4.76563 103.833 4.26042 102.995 3.80208 102.13C3.33854 101.266 2.91667 100.38 2.54167 99.4739C2.16667 98.5676 1.83854 97.6457 1.55208 96.7082C1.27083 95.7707 1.03125 94.8228 0.838541 93.8593C0.651041 92.901 0.505208 91.9322 0.411458 90.953C0.3125 89.9791 0.265625 88.9999 0.265625 88.0207V36.6353C0.265625 35.6562 0.3125 34.677 0.411458 33.703C0.505208 32.7291 0.651041 31.7603 0.838541 30.7968C1.03125 29.8385 1.27083 28.8853 1.55208 27.9478C1.83854 27.0103 2.16667 26.0885 2.54167 25.1822C2.91667 24.276 3.33854 23.3905 3.80208 22.5312C4.26042 21.6666 4.76563 20.8228 5.30729 20.0103C5.85417 19.1926 6.4375 18.4062 7.05729 17.651C7.68229 16.8905 8.33854 16.1666 9.03125 15.4739C9.72396 14.7812 10.4479 14.1249 11.2083 13.4999C11.9635 12.8801 12.75 12.2968 13.5677 11.7551C14.3802 11.2083 15.2187 10.703 16.0833 10.2447C16.9479 9.78117 17.8333 9.3645 18.7396 8.9895C19.6458 8.6145 20.5677 8.28117 21.5052 7.99992C22.4427 7.71346 23.3906 7.47388 24.3542 7.28638C25.3125 7.09367 26.2813 6.94784 27.2604 6.85409C28.2344 6.75513 29.2135 6.70825 30.1927 6.70825Z" fill="white"/>
</mask>
<g mask="url(#mask1_18180_336)">
<path d="M0.265625 117.948H111.505V6.70825H0.265625V117.948Z" fill="url(#paint0_linear_18180_336)"/>
</g>
</g>
<mask id="mask2_18180_336" style="mask-type:luminance" maskUnits="userSpaceOnUse" x="25" y="32" width="62" height="60">
<path d="M25.3335 32H86.6668V92H25.3335V32Z" fill="white"/>
</mask>
<g mask="url(#mask2_18180_336)">
<mask id="mask3_18180_336" style="mask-type:luminance" maskUnits="userSpaceOnUse" x="26" y="32" width="60" height="59">
<path fill-rule="evenodd" clip-rule="evenodd" d="M32.1146 59.8959L64.1875 84.3126C65.7292 85.4845 66.0782 87.6668 65.0105 89.2553L64.8802 89.4376C63.6667 91.0365 61.3594 91.349 59.7605 90.1303L27.6875 65.7136C26.1459 64.5417 25.7969 62.3595 26.8646 60.7709L26.9948 60.5938C28.2084 58.9897 30.5157 58.6772 32.1146 59.8959ZM54.948 55.349L83.4427 77.0365C85.7396 78.7865 86.1875 82.0938 84.4375 84.3907C82.6875 86.6928 79.3802 87.1407 77.0834 85.3907L48.5938 63.7032C46.2969 61.9532 45.849 58.6459 47.5938 56.349V56.3438C49.3438 54.047 52.6511 53.599 54.948 55.349ZM49.0417 33.4376L81.1146 57.8542C82.6615 59.0261 83.0052 61.2032 81.9427 62.7917L81.8125 62.974C80.5938 64.573 78.2865 64.8855 76.6875 63.6667L44.6146 39.2553C43.073 38.0834 42.7292 35.9011 43.7917 34.3126L43.9219 34.1303C45.1407 32.5313 47.4427 32.2188 49.0417 33.4376Z" fill="white"/>
</mask>
<g mask="url(#mask3_18180_336)">
<path d="M25.7969 32.2188V91.349H86.1875V32.2188H25.7969Z" fill="white"/>
</g>
</g>
<path fill-rule="evenodd" clip-rule="evenodd" d="M159.594 83.8699C164.339 83.8699 168.302 82.7813 171.474 80.599C174.646 78.4167 177.12 75.6199 178.885 72.198L168.948 67.8907C168.01 69.823 166.755 71.297 165.182 72.3178C163.609 73.3386 161.688 73.849 159.427 73.849C157.99 73.849 156.641 73.573 155.37 73.0261C154.099 72.474 152.984 71.698 152.016 70.7032C151.052 69.7136 150.292 68.4949 149.74 67.0626C149.188 65.6251 148.911 64.0261 148.911 62.2605C148.911 60.4949 149.188 58.8907 149.74 57.4584C150.292 56.0209 151.052 54.8074 152.016 53.8126C152.984 52.823 154.099 52.047 155.37 51.4949C156.641 50.9428 157.99 50.6667 159.427 50.6667C161.635 50.6667 163.469 51.1511 164.932 52.1147C166.396 53.0834 167.594 54.5053 168.536 56.3803L178.469 52.2397C176.979 48.8178 174.635 46.0313 171.432 43.8803C168.229 41.724 164.286 40.6511 159.594 40.6511C156.448 40.6511 153.563 41.1876 150.938 42.2657C148.318 43.3386 146.052 44.8282 144.151 46.7345C142.245 48.6407 140.755 50.9167 139.677 53.5678C138.604 56.2136 138.062 59.1147 138.062 62.2605C138.062 65.4063 138.604 68.2917 139.677 70.9115C140.755 73.5365 142.245 75.8126 144.151 77.7449C146.052 79.6772 148.318 81.1772 150.938 82.2553C153.563 83.3334 156.448 83.8699 159.594 83.8699ZM204.719 83.8699C207.865 83.8699 210.75 83.3334 213.37 82.2553C215.99 81.1772 218.255 79.6876 220.161 77.7865C222.063 75.8803 223.552 73.6042 224.63 70.9532C225.708 68.3022 226.245 65.4063 226.245 62.2605C226.245 59.1147 225.708 56.2136 224.63 53.5678C223.552 50.9167 222.063 48.6407 220.161 46.7345C218.255 44.8282 215.99 43.3386 213.37 42.2657C210.75 41.1876 207.865 40.6511 204.719 40.6511C201.573 40.6511 198.688 41.1876 196.063 42.2657C193.443 43.3386 191.177 44.8282 189.276 46.7345C187.37 48.6407 185.88 50.9167 184.802 53.5678C183.729 56.2136 183.188 59.1147 183.188 62.2605C183.188 65.4063 183.729 68.3022 184.802 70.9532C185.88 73.6042 187.37 75.8803 189.276 77.7865C191.177 79.6876 193.443 81.1772 196.063 82.2553C198.688 83.3334 201.573 83.8699 204.719 83.8699ZM204.719 73.849C203.281 73.849 201.927 73.5886 200.661 73.0626C199.391 72.5417 198.26 71.7813 197.266 70.7865C196.271 69.797 195.484 68.5782 194.906 67.1459C194.328 65.7084 194.036 64.0834 194.036 62.2605C194.036 60.4376 194.328 58.8074 194.906 57.3751C195.484 55.9376 196.271 54.724 197.266 53.7292C198.26 52.7397 199.391 51.9792 200.661 51.4532C201.927 50.9324 203.281 50.6667 204.719 50.6667C206.099 50.6667 207.438 50.9324 208.734 51.4532C210.031 51.9792 211.177 52.7397 212.167 53.7292C213.161 54.724 213.948 55.9376 214.531 57.3751C215.109 58.8074 215.396 60.4376 215.396 62.2605C215.396 64.0834 215.109 65.7084 214.531 67.1459C213.948 68.5782 213.161 69.797 212.167 70.7865C211.177 71.7813 210.031 72.5417 208.734 73.0626C207.438 73.5886 206.099 73.849 204.719 73.849ZM244.047 82.547V62.8386C244.047 61.1303 244.24 59.5261 244.625 58.0365C245.01 56.547 245.563 55.2657 246.281 54.1876C247 53.1095 247.885 52.2553 248.932 51.6199C249.979 50.9845 251.193 50.6667 252.573 50.6667C257.323 50.6667 259.698 53.4272 259.698 58.948V82.547H270.542V62.8386C270.542 61.1303 270.75 59.5261 271.161 58.0365C271.578 56.547 272.156 55.2657 272.901 54.1876C273.646 53.1095 274.573 52.2553 275.677 51.6199C276.781 50.9845 278.047 50.6667 279.484 50.6667C284.01 50.6667 286.276 53.4272 286.276 58.948V82.547H297.12V56.9584C297.12 54.5886 296.818 52.3907 296.208 50.3803C295.604 48.3647 294.703 46.6407 293.521 45.2032C292.333 43.7657 290.828 42.6511 289.005 41.849C287.182 41.047 285.031 40.6511 282.547 40.6511C279.234 40.6511 276.422 41.3803 274.104 42.8438C271.786 44.3074 269.99 46.0574 268.719 48.099C267.839 46.0053 266.349 44.2397 264.25 42.8022C262.151 41.3647 259.557 40.6511 256.469 40.6511C253.818 40.6511 251.401 41.2553 249.224 42.4688C247.042 43.6876 245.318 45.2865 244.047 47.2709H243.385V41.974H233.198V82.547H244.047ZM325.271 83.8699C329.854 83.8699 333.729 82.849 336.906 80.8074C340.078 78.7657 342.604 76.0886 344.479 72.7761L335.458 68.3022C334.516 70.0157 333.234 71.4376 331.604 72.5678C329.979 73.698 327.922 74.2657 325.438 74.2657C324.167 74.2657 322.927 74.0886 321.714 73.7292C320.495 73.3699 319.38 72.7865 318.359 71.9897C317.339 71.1876 316.479 70.1928 315.792 69.0053C315.104 67.823 314.646 66.4011 314.427 64.7449H344.979C344.979 64.4115 345.005 64.1095 345.063 63.8334C345.063 63.5574 345.089 63.2553 345.146 62.922V61.9272C345.146 58.8907 344.703 56.0782 343.818 53.4845C342.938 50.8907 341.641 48.6407 339.927 46.7345C338.219 44.8282 336.089 43.3386 333.552 42.2657C331.01 41.1876 328.115 40.6511 324.859 40.6511C321.766 40.6511 318.938 41.2292 316.37 42.3855C313.802 43.547 311.583 45.1042 309.708 47.0678C307.828 49.0261 306.365 51.3178 305.318 53.9376C304.271 56.5626 303.745 59.3334 303.745 62.2605C303.745 65.4063 304.281 68.2917 305.359 70.9115C306.438 73.5365 307.938 75.8126 309.87 77.7449C311.802 79.6772 314.078 81.1772 316.703 82.2553C319.323 83.3334 322.182 83.8699 325.271 83.8699ZM334.63 57.0417H315.005C315.724 54.672 316.964 52.823 318.729 51.4949C320.495 50.172 322.542 49.5105 324.859 49.5105C326.516 49.5105 327.938 49.7553 329.12 50.2553C330.307 50.7501 331.302 51.3855 332.104 52.1563C332.901 52.9324 333.51 53.7605 333.927 54.6407C334.339 55.5261 334.573 56.3282 334.63 57.0417ZM370.068 83.2084C371.833 83.2084 373.448 83.0574 374.911 82.7501C376.375 82.448 377.74 81.9949 379.01 81.3855L375.943 71.8647C375.448 72.198 374.922 72.4584 374.37 72.6511C373.818 72.8438 373.073 72.9428 372.135 72.9428C370.703 72.9428 369.599 72.5001 368.823 71.6147C368.271 71.0626 367.901 70.3855 367.708 69.5886C367.516 68.7865 367.417 67.9167 367.417 66.9792V51.2501H377.354V41.974H367.417V29.5522H356.568V41.974H349.448V51.2501H356.568V69.047C356.568 73.6303 357.865 77.1615 360.464 79.6459C361.568 80.7501 362.932 81.6199 364.563 82.2553C366.188 82.8907 368.026 83.2084 370.068 83.2084ZM396.146 82.547V23.2605H385.302V82.547H396.146ZM420.823 100.432L446.24 41.974H434.151L424.297 66.5678H423.719L413.453 41.974H401.115L418.172 80.5574L409.146 100.432H420.823Z" fill="white"/>
<defs>
<linearGradient id="paint0_linear_18180_336" x1="-7.0222" y1="107.884" x2="118.793" y2="16.7735" gradientUnits="userSpaceOnUse">
<stop stop-color="#0251E1"/>
<stop offset="0.0078125" stop-color="#0351E1"/>
<stop offset="0.015625" stop-color="#0352E1"/>
<stop offset="0.0234375" stop-color="#0353E1"/>
<stop offset="0.03125" stop-color="#0453E2"/>
<stop offset="0.0390625" stop-color="#0454E2"/>
<stop offset="0.046875" stop-color="#0455E2"/>
<stop offset="0.0546875" stop-color="#0555E3"/>
<stop offset="0.0625" stop-color="#0556E3"/>
<stop offset="0.0703125" stop-color="#0557E3"/>
<stop offset="0.078125" stop-color="#0557E4"/>
<stop offset="0.0859375" stop-color="#0658E4"/>
<stop offset="0.09375" stop-color="#0659E4"/>
<stop offset="0.101563" stop-color="#0659E5"/>
<stop offset="0.109375" stop-color="#075AE5"/>
<stop offset="0.117188" stop-color="#075BE5"/>
<stop offset="0.125" stop-color="#075BE5"/>
<stop offset="0.132813" stop-color="#085CE6"/>
<stop offset="0.140625" stop-color="#085DE6"/>
<stop offset="0.148438" stop-color="#085DE6"/>
<stop offset="0.15625" stop-color="#095EE7"/>
<stop offset="0.164063" stop-color="#095FE7"/>
<stop offset="0.171875" stop-color="#095FE7"/>
<stop offset="0.179688" stop-color="#0A60E8"/>
<stop offset="0.1875" stop-color="#0A61E8"/>
<stop offset="0.195313" stop-color="#0A61E8"/>
<stop offset="0.203125" stop-color="#0B62E9"/>
<stop offset="0.210938" stop-color="#0B62E9"/>
<stop offset="0.21875" stop-color="#0B63E9"/>
<stop offset="0.226563" stop-color="#0C64EA"/>
<stop offset="0.234375" stop-color="#0C64EA"/>
<stop offset="0.242188" stop-color="#0C65EA"/>
<stop offset="0.25" stop-color="#0C66EB"/>
<stop offset="0.257813" stop-color="#0D66EB"/>
<stop offset="0.265625" stop-color="#0D67EB"/>
<stop offset="0.273438" stop-color="#0D68EC"/>
<stop offset="0.28125" stop-color="#0E68EC"/>
<stop offset="0.289062" stop-color="#0E69EC"/>
<stop offset="0.296875" stop-color="#0E6AEC"/>
<stop offset="0.304688" stop-color="#0F6AED"/>
<stop offset="0.3125" stop-color="#0F6BED"/>
<stop offset="0.320313" stop-color="#0F6CED"/>
<stop offset="0.328125" stop-color="#106CEE"/>
<stop offset="0.335938" stop-color="#106DEE"/>
<stop offset="0.34375" stop-color="#106EEE"/>
<stop offset="0.351563" stop-color="#116EEF"/>
<stop offset="0.359375" stop-color="#116FEF"/>
<stop offset="0.367188" stop-color="#1170EF"/>
<stop offset="0.375" stop-color="#1270F0"/>
<stop offset="0.382813" stop-color="#1271F0"/>
<stop offset="0.390625" stop-color="#1272F0"/>
<stop offset="0.398438" stop-color="#1272F1"/>
<stop offset="0.40625" stop-color="#1373F1"/>
<stop offset="0.414063" stop-color="#1374F1"/>
<stop offset="0.420009" stop-color="#1374F2"/>
<stop offset="0.421875" stop-color="#1475F2"/>
<stop offset="0.429688" stop-color="#1475F2"/>
<stop offset="0.4375" stop-color="#1476F2"/>
<stop offset="0.445313" stop-color="#1476F3"/>
<stop offset="0.453125" stop-color="#1577F3"/>
<stop offset="0.460938" stop-color="#1578F3"/>
<stop offset="0.46875" stop-color="#1578F3"/>
<stop offset="0.476563" stop-color="#1679F4"/>
<stop offset="0.484375" stop-color="#167AF4"/>
<stop offset="0.492188" stop-color="#167AF4"/>
<stop offset="0.5" stop-color="#177BF5"/>
<stop offset="0.507813" stop-color="#177BF5"/>
<stop offset="0.515625" stop-color="#177CF5"/>
<stop offset="0.523438" stop-color="#187DF6"/>
<stop offset="0.53125" stop-color="#187DF6"/>
<stop offset="0.539063" stop-color="#187EF6"/>
<stop offset="0.546875" stop-color="#197FF7"/>
<stop offset="0.554688" stop-color="#197FF7"/>
<stop offset="0.5625" stop-color="#1980F7"/>
<stop offset="0.570312" stop-color="#1981F8"/>
<stop offset="0.578125" stop-color="#1A81F8"/>
<stop offset="0.579991" stop-color="#1A82F8"/>
<stop offset="0.585938" stop-color="#1A82F8"/>
<stop offset="0.59375" stop-color="#1A83F9"/>
<stop offset="0.601562" stop-color="#1B83F9"/>
<stop offset="0.609375" stop-color="#1B84F9"/>
<stop offset="0.617188" stop-color="#1B85FA"/>
<stop offset="0.625" stop-color="#1C85FA"/>
<stop offset="0.632812" stop-color="#1C86FA"/>
<stop offset="0.640625" stop-color="#1C87FA"/>
<stop offset="0.648438" stop-color="#1D87FB"/>
<stop offset="0.65625" stop-color="#1D88FB"/>
<stop offset="0.664063" stop-color="#1D89FB"/>
<stop offset="0.671875" stop-color="#1E89FC"/>
<stop offset="0.679688" stop-color="#1E8AFC"/>
<stop offset="0.6875" stop-color="#1E8BFC"/>
<stop offset="0.695313" stop-color="#1F8BFD"/>
<stop offset="0.703125" stop-color="#1F8CFD"/>
<stop offset="0.710938" stop-color="#1F8DFD"/>
<stop offset="0.71875" stop-color="#208DFE"/>
<stop offset="0.726563" stop-color="#208EFE"/>
<stop offset="0.734375" stop-color="#208FFE"/>
<stop offset="0.742188" stop-color="#208FFF"/>
<stop offset="0.75" stop-color="#2190FF"/>
<stop offset="1" stop-color="#2190FF"/>
</linearGradient>
</defs>
</svg>
