<svg width="423" height="51" viewBox="0 0 423 51" fill="none" xmlns="http://www.w3.org/2000/svg">
<g clip-path="url(#clip0_817_102)">
<path d="M90.2754 3.375H82.0254V49.175H90.2754V3.375Z" fill="white"/>
<path d="M135.475 5.875L122.325 26.875L109.225 5.875C108.275 4.325 106.575 3.375 104.725 3.375C101.775 3.375 99.4253 5.725 99.4253 8.675V49.175H107.675V18.925L117.475 34.625L117.675 34.925C119.825 38.375 124.825 38.375 126.975 34.925L127.175 34.625L137.025 18.875V49.175H145.275V8.675C145.275 5.725 142.875 3.375 139.975 3.375C138.125 3.375 136.425 4.325 135.475 5.875Z" fill="white"/>
<path fill-rule="evenodd" clip-rule="evenodd" d="M222.225 3.375H216.725V24.0251V29.2751V49.175H222.225V29.2751H245.575V49.175H251.075V3.375H245.575V24.0251H222.225V3.375Z" fill="white"/>
<path d="M386.375 20.275V15.675H376.575V5.625H371.075V15.675H364.875V20.275H371.075V44.575C371.075 47.125 373.125 49.175 375.675 49.175H376.575H386.375V44.575H377.925C377.175 44.575 376.525 43.975 376.525 43.175V20.275H386.325H386.375Z" fill="white"/>
<path d="M178.725 1.9751C165.325 1.9751 154.475 12.8251 154.475 26.2251C154.475 39.6251 165.325 50.4751 178.725 50.4751C192.125 50.4751 202.975 39.6251 202.975 26.2251C202.975 12.8251 192.125 1.9751 178.725 1.9751ZM178.725 42.2751C169.875 42.2751 162.675 35.0751 162.675 26.2251C162.675 17.3751 169.875 10.1751 178.725 10.1751C187.575 10.1751 194.775 17.3751 194.775 26.2251C194.775 35.0751 187.575 42.2751 178.725 42.2751Z" fill="white"/>
<path d="M354.875 44.575V4.725C354.875 2.175 352.825 0.125 350.275 0.125H349.375H342.625V4.725H347.975C348.725 4.725 349.375 5.325 349.375 6.125V44.575H342.625V49.175H361.375V44.575H354.825H354.875Z" fill="white"/>
<path d="M422.175 27.375C422.025 20.175 416.125 14.325 408.925 14.325C401.725 14.325 401.175 16.175 398.775 19.075V0.125H393.275V49.125H398.775V27.475C399.425 23.125 403.175 19.775 407.675 19.775C412.175 19.775 416.575 23.225 416.725 27.475V49.075H422.225V27.325L422.175 27.375Z" fill="white"/>
<path d="M290.875 30.8252C290.875 21.7752 283.475 14.3252 274.375 14.3252C265.325 14.3252 257.875 21.7252 257.875 30.8252V34.0252C257.875 43.0752 265.275 50.5252 274.375 50.5252C281.225 50.5252 287.125 46.3252 289.625 40.3252L284.475 38.4252C282.775 42.2752 278.875 45.0252 274.425 45.0252C268.375 45.0252 263.425 40.0752 263.425 34.0252V33.8252H290.925V30.8252H290.875ZM274.425 19.8752C279.925 19.8752 284.525 23.9752 285.325 29.2752H263.575C264.325 23.9752 268.925 19.8752 274.475 19.8752H274.425Z" fill="white"/>
<path fill-rule="evenodd" clip-rule="evenodd" d="M297.775 32.475C297.775 22.475 305.425 14.375 314.925 14.375C319.441 14.375 323.558 16.225 326.625 19.2482V15.7751H332.125V43.2251C332.125 44.0251 332.775 44.6251 333.525 44.6251H335.825V49.2252H331.225C329.01 49.2252 327.172 47.678 326.727 45.6C323.65 48.6834 319.492 50.575 314.925 50.575C305.475 50.575 297.775 42.475 297.775 32.475ZM303.225 32.425C303.225 39.375 308.475 45.025 314.925 45.025C321.375 45.025 326.625 39.375 326.625 32.425C326.625 25.475 321.375 19.825 314.925 19.825C308.475 19.825 303.225 25.475 303.225 32.425Z" fill="white"/>
<path fill-rule="evenodd" clip-rule="evenodd" d="M61.4252 10.9251C63.6896 10.9251 65.5252 9.08947 65.5252 6.8251C65.5252 4.56073 63.6896 2.7251 61.4252 2.7251C59.1608 2.7251 57.3252 4.56073 57.3252 6.8251C57.3252 9.08947 59.1608 10.9251 61.4252 10.9251ZM10.1252 49.575C10.1469 49.5418 10.1682 49.5085 10.1893 49.475H42.4752C46.0252 49.475 48.9752 47.175 49.8252 43.675C50.6752 40.175 49.0752 36.775 45.8752 35.175L35.6252 30.025H42.4752C46.0252 30.025 48.9752 27.725 49.8252 24.225C50.6752 20.725 49.0752 17.325 45.8752 15.725L35.6252 10.575H55.3752C54.6252 9.425 54.2252 8.075 54.2252 6.725C54.2252 5.375 54.6252 4.025 55.3752 2.875H19.2752C17.4752 2.875 15.9252 4.125 15.5252 5.875C15.1252 7.625 15.9752 9.425 17.5752 10.225L41.7252 22.375H19.3252C17.5252 22.375 15.9752 23.625 15.5752 25.375C15.1752 27.125 16.0252 28.925 17.6252 29.725L41.7752 41.875H10.1252C10.8752 43.025 11.2752 44.375 11.2752 45.725C11.2752 47.0361 10.898 48.3471 10.1893 49.475H10.1252V49.575ZM8.2752 45.7252C8.2752 47.9896 6.43956 49.8252 4.1752 49.8252C1.91083 49.8252 0.0751953 47.9896 0.0751953 45.7252C0.0751953 43.4609 1.91083 41.6252 4.1752 41.6252C6.43956 41.6252 8.2752 43.4609 8.2752 45.7252Z" fill="white"/>
</g>
<defs>
<clipPath id="clip0_817_102">
<rect width="423" height="51" fill="white"/>
</clipPath>
</defs>
</svg>
