<svg width="350" height="76" viewBox="0 0 350 76" fill="none" xmlns="http://www.w3.org/2000/svg">
<g clip-path="url(#clip0_815_35)">
<path d="M44.9724 28.5546C44.3844 26.7306 42.7303 22.6467 42.2645 19.616C41.2677 12.9374 44.7636 8.52018 47.9937 7.51338C51.5849 6.49725 52.9907 8.30138 54.3864 12.5295C56.1912 18.9322 56.4005 27.3295 55.7828 39.356C55.0041 55.7811 46.7864 75.616 26.3531 75.2082C8.72188 74.8082 0.923435 63.3998 0.0973932 45.968C-0.274481 37.7603 0.315101 29.5519 3.725 17.9347C5.52084 11.7306 7.12552 9.50818 12.7214 8.30138C17.1385 7.51338 16.7303 12.1107 15.7333 17.5358C13.5385 29.5519 12.5219 35.3571 13.3385 48.9784C14.1265 63.3998 20.7484 69.0056 27.9489 69.0056C38.7688 69.2134 43.576 60.2082 45.5713 47.1842C47.1765 36.7535 45.9803 31.756 44.9724 28.5546ZM275.615 42.7852C279.813 42.7852 281.02 47.7722 280.012 50.7842C279.005 53.7759 275.424 57.1962 269.8 58.2024C268.612 55.192 268.005 42.7852 275.615 42.7852ZM197.291 49.5774C197.291 46.1664 195.495 43.3748 193.309 43.3748C191.485 43.3748 187.287 45.3603 187.287 51.7722C187.287 56.7972 189.073 59.1904 189.899 60.2082C195.675 58.3936 197.291 53.5774 197.291 49.5774ZM134.991 8.71072C134.716 5.49885 132.198 3.32378 128.789 3.32378C124.997 3.32378 121.416 7.29458 121.777 12.3202C122.024 15.6254 123.971 18.3426 127.81 18.3426C132.198 18.3426 135.399 13.327 134.991 8.71072ZM167.575 20.48C167.224 14.8852 165.865 12.3483 162.863 12.5571C158.873 12.7852 157.031 25.3535 157.848 38.5388C158.369 47.1358 159.644 48.4759 160.849 48.3904C163.044 48.2571 168.336 32.8774 167.575 20.48ZM300.436 41.5603C297.967 51.8571 290.444 67.0186 279.215 67.0186C276.612 67.0186 272.004 66.0118 272.004 63.3998C272.004 60.5879 289.636 60.2082 289.636 46.7655C289.636 41.7691 285.039 34.7483 278.217 34.7483C269.212 34.7483 260.415 44.5707 260.415 58.2024C260.415 70.4014 268.005 74.4092 275.615 74.4092C288.828 74.4092 296.836 63.5894 301.036 54.5748C303.068 60.5879 304.236 74.4092 309.263 74.4092C311.276 74.4092 312.672 73.4118 315.085 68.0066C321.08 54.5748 326.893 39.1467 334.921 39.1467C337.904 39.1467 336.108 44.5707 343.309 44.5707C346.719 44.5707 349.113 41.7691 349.113 38.5483C349.113 33.9322 344.924 30.3415 338.501 30.3415C319.683 30.3415 315.684 58.5936 312.672 58.5936C307.676 58.5936 309.263 35.9451 305.663 35.9451C302.461 35.9451 300.864 39.7842 300.436 41.5603ZM140.207 65.5936C143.208 65.5936 148.365 64.616 152.432 58.1082C150.105 52.9603 148.452 42.5295 148.225 38.7388C147.027 19.3118 154.513 1.04405 162.692 0.539913C168.705 0.180047 173.512 5.86032 174.063 15.0655C175.536 39.2707 167.48 49.3587 163.452 58.0894C164.136 61.4612 169.855 67.1998 175.251 67.1998C177.264 67.1998 179.659 66.192 180.276 65.404C179.868 64.0082 179.459 62.2024 179.459 59.5904C179.459 45.5691 188.473 33.7519 196.292 33.7519C202.505 33.7519 206.105 41.9494 206.105 47.3732C206.105 53.7759 200.691 58.992 192.692 64.0082C194.099 65.404 196.692 66.4014 198.905 66.4014C210.323 66.4014 216.308 52.58 220.725 39.9546C221.533 37.5612 222.959 34.1508 225.741 34.1508C230.557 34.1508 232.572 65.8024 240.561 65.8024C243.961 65.8024 246.753 58.7732 246.753 53.3868C246.753 49.3784 245.357 48.9784 245.357 43.1655C245.357 36.7535 248.779 31.3759 253.385 31.3759C256.197 31.3759 257.193 34.1508 257.193 37.5612C257.193 50.3664 247.971 74.2201 234.368 74.2201C224.136 74.2201 224.933 56.5879 221.343 56.5879C217.315 56.5879 211.701 74.4092 191.895 74.4092C188.673 74.4092 185.264 72.8134 182.48 69.6024C177.673 72.8134 173.655 74.2201 169.048 74.2201C161.648 74.2201 158.436 66.6108 155.444 66.6108C151.825 66.6108 147.835 74.4092 135.799 74.4092C126.175 74.4092 124.589 61.604 121.179 61.604C118.167 61.604 113.579 74.4092 108.573 74.4092C100.137 74.4092 98.3604 52.1998 90.9323 52.1998C85.1281 52.1998 66.7745 74.7425 61.7964 74.2389C59.7917 74.0295 58.9469 72.5389 59.1557 70.5425C59.4401 67.7603 61.8255 60.3306 62.7839 56.8451C64.4088 50.756 65.8912 44.0587 66.7177 41.9399C67.5531 39.8118 69.7755 38.2639 71.5527 38.4347C72.4547 38.5107 72.7401 40.192 73.0151 41.5603C74.0229 46.5186 75.4281 51.5722 77.024 51.5722C79.8364 51.5722 89.1276 33.7519 94.5235 33.7519C101.153 33.7519 101.942 61.804 110.957 61.804C113.979 61.804 116.172 58.2024 118.167 53.7759C118.376 46.3478 120.39 35.756 126.385 35.756C130.593 35.756 132.607 45.1603 129.585 53.3868C129.585 63.1998 136.008 65.5936 140.207 65.5936Z" fill="white"/>
</g>
<defs>
<clipPath id="clip0_815_35">
<rect width="350" height="76" fill="white"/>
</clipPath>
</defs>
</svg>
