<svg width="486" height="89" viewBox="0 0 486 89" fill="none" xmlns="http://www.w3.org/2000/svg">
<g clip-path="url(#clip0_816_64)">
<mask id="mask0_816_64" style="mask-type:luminance" maskUnits="userSpaceOnUse" x="-47" y="-44" width="570" height="176">
<path d="M-46.4584 -43.9397H522.02V131.969H-46.4584V-43.9397Z" fill="white"/>
</mask>
<g mask="url(#mask0_816_64)">
<path d="M482.179 80.7189C480.147 80.7189 478.54 82.3311 478.54 84.3503C478.54 86.3705 480.147 87.9795 482.179 87.9795C484.205 87.9795 485.815 86.3705 485.815 84.3503C485.815 82.3311 484.205 80.7189 482.179 80.7189ZM482.179 87.4239C480.514 87.4239 479.092 86.0641 479.092 84.3503C479.092 82.6343 480.514 81.2815 482.179 81.2815C483.839 81.2815 485.256 82.6343 485.256 84.3503C485.256 86.0641 483.839 87.4239 482.179 87.4239Z" fill="#D1D5DB"/>
<path d="M483.958 83.3881C483.958 82.533 483.265 82.3385 482.543 82.3385H480.819V86.3098H481.375V84.4755H482.05L483.234 86.3098H483.904L482.708 84.4755C483.413 84.4549 483.958 84.1723 483.958 83.3881ZM482.05 83.9231H481.375V82.8995H482.434C482.866 82.8995 483.402 82.9714 483.402 83.3778C483.402 84.0107 482.532 83.9231 482.05 83.9231Z" fill="#D1D5DB"/>
<path d="M458.876 88.0288C459.586 86.1042 460.226 84.0494 460.752 81.9605C461.774 77.7211 462.303 73.3303 462.303 68.8574C462.303 66.2756 462.124 63.7214 461.78 61.2077C461.526 64.8704 460.888 68.0802 460.888 68.0802C461.038 68.564 461.304 69.3584 461.427 69.8486L461.427 69.8508C461.031 73.6314 460.317 77.3044 459.317 80.8368C458.836 79.0625 458.191 77.3546 458.149 77.2444C458.148 77.2422 458.147 77.24 458.147 77.2384C456.851 80.692 454.914 84.7585 453.155 88.0288H458.876Z" fill="#D1D5DB"/>
<path d="M446.88 88.0288H450.188C459.604 74.1199 460.077 61.793 460.077 59.4312C460.077 54.9696 459.328 50.8702 458.075 47.6242C458.075 47.6242 456.121 42.5795 453.078 38.0904C453.411 39.0935 454.049 41.1272 454.402 42.9437C454.425 43.0648 454.444 43.1718 454.46 43.2707C455.06 44.27 457.763 49.0364 458.125 54.2778C458.125 54.287 458.126 54.2935 458.126 54.2935C458.126 54.2935 456.216 51.6182 454.799 49.9276C454.748 52.8089 454.374 55.6917 453.771 58.4762C453.771 58.4762 456.601 61.7535 457.868 63.8673C457.868 63.8673 457.007 68.4775 455.16 72.8952C453.282 70.1637 450.883 67.5106 450.883 67.5106C449.479 70.9804 447.702 74.4718 445.728 77.7005C445.728 77.7005 449.314 81.8967 450.101 83.0933C449.048 84.866 448.021 86.4096 446.88 88.0288Z" fill="#D1D5DB"/>
<path d="M435.094 88.0288C441.343 81.0401 446.668 72.819 449.866 64.0165C452.642 56.3797 454.153 47.0524 451.695 38.7562C451.531 38.2087 451.346 37.6569 451.13 37.1019C450.345 35.073 449.326 33.3035 448.217 31.9134C445.229 28.5733 441.845 25.597 438.137 23.0633C438.682 23.7659 439.18 24.4896 439.611 25.2235C439.611 25.2235 444.126 28.5728 446.747 31.9755C443.385 29.5802 441.481 28.6106 441.234 28.4879C441.225 28.4836 441.215 28.4793 441.206 28.4744C442.483 31.6226 442.867 34.2298 442.868 34.2341C442.868 34.2341 446.858 36.316 450.45 39.4264C450.947 41.7261 451.152 44.0825 451.119 46.4416C447.499 43.2567 443.309 40.7695 443.309 40.7695C443.232 43.4664 442.859 46.1979 442.266 48.8532C442.266 48.8532 446.223 51.3582 450.078 54.8702C450.078 54.8702 448.971 59.8468 447.185 63.7603C443.486 60.317 439.879 57.6374 439.595 57.4277C439.595 57.4277 437.758 62.2162 434.784 67.022C438.487 70.2437 441.968 73.5833 441.968 73.5833C439.842 76.9006 437.436 80.0591 434.84 83.0122L434.839 83.0149L428.215 76.4185C425.523 79.7489 422.572 82.8868 419.439 85.7751C419.587 85.9426 420.923 87.4229 421.469 88.0288H435.094Z" fill="#D1D5DB"/>
<path d="M436.794 23.7999C436.366 23.2141 435.881 22.6169 435.325 22.085C434.837 21.6197 434.361 21.1997 433.861 20.8225C428.349 16.6669 418.205 14.5888 418.205 14.5888C419.173 15.1049 419.979 15.634 419.983 15.6378C420.032 15.6497 424.122 16.675 427.749 18.4493C427.749 18.4493 424.449 17.6997 422.333 17.4078C423.208 18.1764 424.039 19.0611 424.768 19.9853C424.768 19.9853 431.499 21.2133 434.454 22.8336C434.454 22.8336 435.868 24.289 437.025 26.8422C432.411 24.9695 427.187 23.9929 427.187 23.9929C427.881 25.5467 428.377 27.2108 428.682 28.9425C428.682 28.9425 434.425 30.3482 438.741 32.4203C439.114 34.4698 439.251 36.5884 439.172 38.7319C434.074 36.176 429.015 34.5709 429.015 34.5709C428.913 36.7803 428.557 39.0702 427.961 41.4094C427.961 41.4094 434.92 44.5176 438.048 46.4043C437.357 49.1672 436.388 51.8733 435.222 54.4789C430.459 51.3842 425.417 48.6321 425.417 48.6321C424.151 51.6733 421.036 56.6543 421.036 56.6543L421.036 56.6548L421.039 56.6564C421.117 56.7105 426.302 60.2694 430.279 63.4279C428.303 66.4221 426.076 69.2979 423.651 72.0316C422.814 71.2317 415.171 64.4467 415.171 64.4467C412.864 67.1215 410.296 69.727 407.484 72.2213C407.484 72.2213 407.484 72.2224 407.485 72.2229L414.853 80.5617C414.854 80.5623 414.854 80.5623 414.855 80.5628L414.854 80.5639C410.075 84.499 405.311 87.4808 405.311 87.4808L399.163 78.7528C399.163 78.7528 394.837 82.0437 387.535 85.4994V88.0288H411.513C438.277 67.7792 447.774 38.8238 436.794 23.7999Z" fill="#D1D5DB"/>
<path d="M423.219 20.7616C416.571 11.8147 406.167 13.0929 403.064 13.5269C399.656 14.0047 397.079 14.7505 397.079 14.7505C397.841 14.8219 398.877 14.9581 399.625 15.1067C400.177 14.977 404.961 13.8863 408.438 14.3419C408.443 14.3419 408.448 14.3425 408.448 14.3425C405.893 14.6197 402.407 15.6736 402.043 15.785C402.039 15.7861 402.038 15.7882 402.034 15.7898C402.038 15.7915 402.041 15.7931 402.045 15.7942C402.17 15.8309 403.175 16.1357 404.464 16.8918C404.841 16.7908 409.574 15.5353 414.088 15.4466V15.4477C414.088 15.4477 415.756 16.1876 417.363 17.2907C411.531 17.2686 406.702 18.3884 406.571 18.4192C407.255 19.0251 407.934 19.7542 408.544 20.6302C414.938 19.6725 420.455 20.0876 420.455 20.0876C420.455 20.0876 421.205 21.0026 421.542 21.4944C421.968 22.1138 422.404 22.8834 422.742 23.5596C416.216 22.7964 409.974 23.3423 409.97 23.3423C410.401 24.4535 410.692 25.642 410.851 26.8915C411.573 26.8861 417.1 26.8964 424.139 28.1638C424.364 29.7776 424.387 31.5066 424.21 33.3312C423.013 33.0199 417.233 31.5763 410.927 30.9504C410.8 32.5264 410.5 34.1673 410.039 35.8497C410.745 36.0162 418.536 37.8732 422.9 39.6411C422.816 39.9151 422.728 40.1902 422.636 40.4669C422.011 42.3407 421.23 44.2221 420.306 46.0975C416.792 44.3675 408.174 40.9988 408.174 40.9988C407.313 42.9261 406.26 44.8771 405.028 46.8244C405.028 46.8244 412.417 51.0406 415.975 53.3749C414.332 55.7221 412.477 58.0266 410.43 60.2539C407.85 57.9391 401.395 52.9376 400.908 52.5604C398.826 55.039 396.204 57.6456 395.419 58.4163L403.165 67.2983C403.094 67.3626 403.019 67.428 402.943 67.494C401.267 68.8835 399.461 70.1914 397.935 71.2399C396.61 72.1398 395.517 72.837 395.139 73.0802C395.049 72.9435 389.978 64.8457 389.215 63.5572C388.658 63.9701 388.097 64.3652 387.535 64.7533V81.4001C388.446 80.9607 389.36 80.5057 390.27 80.022C394.637 77.8715 398.876 75.1426 402.82 71.9901C405.348 69.9828 407.999 67.628 410.617 64.9095C413.727 61.7196 416.427 58.378 418.682 54.9919C427.225 42.3818 429.514 29.2339 423.219 20.7616Z" fill="#D1D5DB"/>
<path d="M405.975 20.0872C402.809 16.4542 397.54 15.21 391.419 16.0851C391.252 16.1099 391.079 16.1332 390.922 16.1596C390.455 16.2385 389.983 16.3337 389.506 16.4391C388.561 16.6585 387.913 16.8747 387.535 17.0211V18.8533C388.138 18.3783 388.753 17.9259 389.387 17.5011C390.607 17.24 391.792 17.0736 392.935 16.999C391.167 18.008 389.126 19.3765 387.535 20.6406V22.0507L387.59 22.0831C387.59 22.0831 392.077 18.5317 395.642 17.0011C396.501 17.0633 397.324 17.1833 398.108 17.3633C392.782 19.6229 388.849 22.4258 388.576 22.6225C389.123 22.9463 389.621 23.3522 389.687 23.4057C389.756 23.3624 394.92 20.1326 400.604 18.1967C401.375 18.549 402.12 18.9879 402.765 19.4846C396.576 21.2238 390.627 24.3293 390.627 24.3293C390.962 24.7195 391.257 25.1411 391.513 25.5924C391.553 25.5762 391.59 25.5616 391.619 25.5502C397.953 22.8393 404.684 21.4492 404.684 21.4492C405.21 22.1702 405.644 22.9754 405.975 23.8629C405.975 23.8629 399.935 24.5536 392.164 27.0457C392.507 28.1196 392.601 28.9265 392.602 28.9341C392.602 28.9341 399.927 27.2954 406.683 27.1138C406.777 28.199 406.743 29.4173 406.588 30.6668C402.587 30.456 393.057 30.963 392.682 30.9922C392.682 30.9922 392.648 32.3655 392.291 33.6572C392.291 33.6572 399.254 33.8804 405.588 35.0619C405.099 36.5784 404.473 38.0744 403.732 39.5348C399.51 38.2668 393.104 36.727 391.419 36.3401C390.975 37.4324 390.418 38.5165 389.757 39.5661C389.757 39.5661 397.584 42.9824 400.588 44.653H400.595L400.593 44.6562C399.289 46.6084 396.705 49.341 396.705 49.341C395.955 48.78 395.246 48.2562 394.578 47.766C392.502 46.3138 389.422 44.1574 387.55 42.8543C387.541 42.8484 387.541 42.8478 387.535 42.844V49.3166L391.594 54.0587C390.257 55.1364 388.895 56.1184 387.535 56.9999V60.8621C387.585 60.8296 387.635 60.7977 387.684 60.7648C389.538 59.5022 391.37 58.0954 393.155 56.5427C407.162 44.3552 412.901 28.0331 405.975 20.0872Z" fill="#D1D5DB"/>
<path d="M387.535 38.6379C391.113 33.5435 391.631 27.6968 388.489 24.8426C388.193 24.5745 387.873 24.3448 387.535 24.1464V38.6379Z" fill="#D1D5DB"/>
<path d="M407.071 11.2498C438.813 11.2498 464.638 37.1721 464.638 69.0347C464.638 75.497 463.545 81.927 461.431 88.0288H475.562V-1.25614e-06H387.533V14.6828L387.602 14.658C393.851 12.3966 400.402 11.2498 407.071 11.2498Z" fill="#D1D5DB"/>
<path d="M350.701 28.0671C348.552 26.1538 345.808 24.6692 342.469 23.6147C339.13 22.5603 335.117 22.0333 330.43 22.0333H306.701V65.9731H330.43C338.866 65.9731 345.399 64.1475 350.027 60.495C354.656 56.8441 356.97 51.3471 356.97 44.0038C356.97 40.7226 356.462 37.7247 355.446 35.0099C354.43 32.2951 352.848 29.9814 350.701 28.0671ZM342.762 49.5106C342.273 50.9952 341.483 52.1859 340.389 53.0836C339.295 53.984 337.879 54.6277 336.141 55.0174C334.403 55.4087 332.304 55.6032 329.844 55.6032H319.475V32.4027H329.844C332.382 32.4027 334.52 32.6183 336.259 33.0469C337.996 33.4782 339.403 34.1597 340.477 35.098C341.551 36.0352 342.323 37.2361 342.792 38.7007C343.261 40.1665 343.494 41.9333 343.494 44.0038C343.494 46.1905 343.249 48.0259 342.762 49.5106Z" fill="#D1D5DB"/>
<path d="M256.258 47.9284H280.279V39.3161H256.258V32.0522H284.789L284.556 22.0325H243.485V65.9729H285.728L285.962 56.0716H256.258V47.9284Z" fill="#D1D5DB"/>
<path d="M178.631 22.0331L178.281 32.4024H195.094V65.9729H207.925V32.4024H224.738L224.447 22.0331H178.631Z" fill="#D1D5DB"/>
<path d="M145.823 65.9729H158.829V22.0325H145.823V65.9729Z" fill="#D1D5DB"/>
<path d="M109.733 43.8854L109.85 48.5729L109.733 48.6896L106.393 45.2917L82.6077 22.0328H72.0616V65.9731H83.6616V42.891L83.5454 38.1446L83.72 38.0862L87.0606 41.4252L112.955 65.9731H121.334V22.0328H109.733V43.8854Z" fill="#D1D5DB"/>
<path d="M36.7338 46.8156C36.7338 50.1351 35.7961 52.6062 33.9218 54.227C32.0474 55.8484 29.0387 56.658 24.8992 56.658C20.7198 56.658 17.6538 55.8484 15.7011 54.227C13.7473 52.6062 12.7712 50.1351 12.7712 46.8156V22.0331H0V46.6989C0 53.4941 2.13808 58.5626 6.41532 61.9027C10.692 65.2411 16.8528 66.9106 24.8992 66.9106C32.9835 66.9106 39.0967 65.2509 43.2372 61.9313C47.3766 58.6113 49.4477 53.5325 49.4477 46.6989V22.0331H36.7338V46.8156Z" fill="#D1D5DB"/>
</g>
</g>
<defs>
<clipPath id="clip0_816_64">
<rect width="485.816" height="88.0288" fill="white"/>
</clipPath>
</defs>
</svg>
